<svg xmlns="http://www.w3.org/2000/svg" width="512" height="512" viewBox="0 0 96 96" role="img" aria-label="DK">
  <rect width="96" height="96" fill="#242123"/>
  <g fill="#ffffff" transform="translate(6.891376, 72.152886)">
    <path d="M 3.59375 -49.515625 L 17.9375 -49.515625 C 24.820312 -49.515625 30.703125 -47.160156 35.578125 -42.453125 C 40.460938 -37.753906 42.90625 -31.863281 42.90625 -24.78125 C 42.90625 -17.664062 40.472656 -11.753906 35.609375 -7.046875 C 30.753906 -2.347656 24.863281 0 17.9375 0 L 3.59375 0 Z M 14.890625 -10.078125 L 16.625 -10.078125 C 20.75 -10.078125 24.117188 -11.46875 26.734375 -14.25 C 29.359375 -17.03125 30.691406 -20.519531 30.734375 -24.71875 C 30.734375 -28.925781 29.421875 -32.429688 26.796875 -35.234375 C 24.171875 -38.035156 20.78125 -39.4375 16.625 -39.4375 L 14.890625 -39.4375 Z M 14.890625 -10.078125"/>
  </g>
  <g fill="#ff6b4a" transform="translate(39.176531, 72.152886)">
    <path d="M 48.671875 0 L 33.125 0 L 14.890625 -21 L 14.890625 0 L 3.59375 0 L 3.59375 -49.515625 L 14.890625 -49.515625 L 14.890625 -29.28125 L 31.875 -49.515625 L 45.546875 -49.515625 L 25.625 -26.046875 Z M 48.671875 0"/>
  </g>
</svg>
